<svg xmlns="http://www.w3.org/2000/svg" viewBox="0 0 240 55.74"><defs><style>.cls-1{fill:#808184;}.cls-2{fill:#70b244;}</style></defs><g id="Layer_2" data-name="Layer 2"><g id="Layer_1-2" data-name="Layer 1"><rect class="cls-1" x="169.4" width="10.57" height="55.74" rx="1.45"/><path class="cls-1" d="M146.84,34.75a15.48,15.48,0,0,1-.76,5.1,8.83,8.83,0,0,1-2.21,3.54,9.43,9.43,0,0,1-3.56,2.13,15.09,15.09,0,0,1-4.9.73,14.8,14.8,0,0,1-4.84-.73A9.4,9.4,0,0,1,127,43.38a8.72,8.72,0,0,1-2.21-3.53,15.48,15.48,0,0,1-.76-5.1V22.6a1.45,1.45,0,0,0-1.45-1.46h-7.67a1.46,1.46,0,0,0-1.46,1.46v12a22,22,0,0,0,2.93,11.63,18.26,18.26,0,0,0,8,7.18,25.59,25.59,0,0,0,11,2.33,25.88,25.88,0,0,0,11-2.33h0a18.8,18.8,0,0,0,8.06-7.17,21.48,21.48,0,0,0,3-11.64V1.45A1.45,1.45,0,0,0,156,0h-7.67a1.45,1.45,0,0,0-1.45,1.45Z"/><path class="cls-2" d="M115,10.57a1.38,1.38,0,0,1-1-.46,1.43,1.43,0,0,1-.45-1V1.49a1.37,1.37,0,0,1,.45-1.07A1.46,1.46,0,0,1,115,0h7.64a1.4,1.4,0,0,1,1.06.42,1.46,1.46,0,0,1,.41,1.07V9.08a1.51,1.51,0,0,1-.41,1,1.33,1.33,0,0,1-1.06.46Z"/><path class="cls-1" d="M236.35,13.22A24.49,24.49,0,0,0,226,3.4,33.71,33.71,0,0,0,210.46,0H193.41A1.45,1.45,0,0,0,192,1.45V54.29a1.45,1.45,0,0,0,1.45,1.45h17.05A34.39,34.39,0,0,0,226,52.42a24.18,24.18,0,0,0,10.39-9.62A28.79,28.79,0,0,0,240,28.07,29.4,29.4,0,0,0,236.35,13.22Zm-33.82-3.3a1,1,0,0,1,1-1h7a23.36,23.36,0,0,1,8.08,1.26A15.15,15.15,0,0,1,224.38,14c3.18,3.34,4.81,8,4.82,14.11a24.26,24.26,0,0,1-1.22,8,15.61,15.61,0,0,1-3.59,5.86,15,15,0,0,1-5.84,3.64,24.17,24.17,0,0,1-8.09,1.24h-7a1,1,0,0,1-1-1Z"/><path class="cls-1" d="M71.4,35.1a1,1,0,0,1,1-1h7.19s.78.06,1,.57l8.53,20.15a1.45,1.45,0,0,0,1.34.89h8.84a1.45,1.45,0,0,0,1.33-2L91.75,33.77a1.46,1.46,0,0,1,.72-1.9,14.68,14.68,0,0,0,5.79-4.75A17,17,0,0,0,101.5,17a16.72,16.72,0,0,0-2.26-8.6,16,16,0,0,0-6.8-6.16A24,24,0,0,0,81.52,0H62.28a1.45,1.45,0,0,0-1.45,1.45V54.29a1.45,1.45,0,0,0,1.45,1.45H70a1.45,1.45,0,0,0,1.45-1.45Zm17-12a7.21,7.21,0,0,1-2.81,1.67,13.32,13.32,0,0,1-4.09.57H72.37a1,1,0,0,1-1-1V9.92a1,1,0,0,1,1-1h9.15a13.68,13.68,0,0,1,4.15.55,7.05,7.05,0,0,1,2.8,1.58,6.62,6.62,0,0,1,1.65,2.51A9.68,9.68,0,0,1,90.69,17,8.11,8.11,0,0,1,88.42,23.1Z"/><path class="cls-2" d="M24,25.91a2,2,0,1,0,2,2,2,2,0,0,0-2-2"/><path class="cls-2" d="M14.87,25.9a2,2,0,1,0,2,2,2,2,0,0,0-2-2"/><path class="cls-2" d="M33.13,25.91a2,2,0,1,0,2,2,2,2,0,0,0-2-2"/><path class="cls-1" d="M20.2,0a32.27,32.27,0,0,1,7.6.89,30.45,30.45,0,0,1,6.83,2.55,29.13,29.13,0,0,1,5.8,4,24.73,24.73,0,0,1,7.38,11.34,23,23,0,0,1,1,6.92H40.43v-5.2a2.87,2.87,0,0,0-2.89-2.87H10.46a2.89,2.89,0,0,0-2.89,2.89v5.18H0V1.45A1.45,1.45,0,0,1,1.45,0Z"/><path class="cls-2" d="M0,54.29a1.45,1.45,0,0,0,1.45,1.45H20.2a32.27,32.27,0,0,0,7.6-.89,30.45,30.45,0,0,0,6.83-2.55,29.13,29.13,0,0,0,5.8-4A24.73,24.73,0,0,0,47.81,37a23,23,0,0,0,1-6.92H40.43v5.2a2.87,2.87,0,0,1-2.89,2.87H20.09l-5.7,5.51a1,1,0,0,1-1.21.1,1,1,0,0,1-.42-.82V38.15h-2.3a2.89,2.89,0,0,1-2.89-2.89V30.08H0Z"/></g></g></svg>